<svg width="165" height="247" viewBox="0 0 165 247" fill="none" xmlns="http://www.w3.org/2000/svg">
<path d="M42 220L11 246.5L3.5 139L47 180.5L42 220Z" fill="white"/>
<path d="M101 76L49 76.8462L54 87H97.5L101 76Z" fill="white"/>
<path d="M157 27L127.5 55L144 71C160.8 63 160.167 37 157 27Z" fill="white"/>
<path d="M164.5 0L36.5 6.5L9 42L36.5 75H48.5C48.5 75 87.9174 74 101 74C120.721 74 139.5 75 139.5 75L124 59.5H66V51.5H124L154 23.5L164.5 0Z" fill="white"/>
<path d="M92 89H60.5L97.5 160.5L50.8256 180L46 219.5C46 219.5 92.0161 196.923 139.5 175.5L92 89Z" fill="white"/>
</svg>
