<svg width="657" height="266" viewBox="0 0 657 266" fill="none" xmlns="http://www.w3.org/2000/svg">
<path d="M42 239L11 265.5L3.5 158L47 199.5L42 239Z" fill="url(#paint0_linear_219_2)"/>
<path d="M101 95L49 95.8462L54 106H97.5L101 95Z" fill="url(#paint1_linear_219_2)"/>
<path d="M157 46L127.5 74L144 90C160.8 82 160.167 56 157 46Z" fill="url(#paint2_linear_219_2)"/>
<path d="M164.5 19L36.5 25.5L9 61L36.5 94H48.5C48.5 94 87.9174 93 101 93C120.721 93 139.5 94 139.5 94L124 78.5H66V70.5H124L154 42.5L164.5 19Z" fill="url(#paint3_linear_219_2)"/>
<path d="M92 108H60.5L97.5 179.5L50.8256 199L46 238.5C46 238.5 92.0161 215.923 139.5 194.5L92 108Z" fill="url(#paint4_linear_219_2)"/>
<path d="M306.35 161.809C306.35 169.169 304.494 176.158 300.783 182.775C297.072 189.331 291.289 194.65 283.435 198.732C275.642 202.814 265.56 204.855 253.19 204.855C247.006 204.855 241.563 204.577 236.862 204.021C232.224 203.464 227.894 202.567 223.874 201.33C219.854 200.031 215.679 198.361 211.35 196.32V163.664C218.71 167.375 226.132 170.22 233.615 172.199C241.099 174.117 247.871 175.075 253.933 175.075C257.582 175.075 260.55 174.642 262.839 173.776C265.189 172.91 266.921 171.735 268.034 170.251C269.147 168.705 269.704 166.942 269.704 164.963C269.704 162.613 268.869 160.633 267.199 159.025C265.591 157.355 262.993 155.624 259.406 153.83C255.819 152.036 251.088 149.81 245.212 147.15C240.202 144.8 235.656 142.388 231.574 139.914C227.554 137.44 224.09 134.626 221.184 131.472C218.339 128.256 216.143 124.514 214.597 120.246C213.05 115.979 212.277 110.938 212.277 105.124C212.277 96.4033 214.411 89.1051 218.679 83.2295C223.008 77.292 229.007 72.8389 236.677 69.8701C244.408 66.9014 253.314 65.417 263.396 65.417C272.24 65.417 280.188 66.4066 287.238 68.3857C294.351 70.3649 300.721 72.6224 306.35 75.1582L295.124 103.454C289.31 100.795 283.589 98.6917 277.961 97.1455C272.333 95.5374 267.106 94.7334 262.282 94.7334C259.128 94.7334 256.53 95.1354 254.489 95.9395C252.51 96.6816 251.026 97.7021 250.036 99.001C249.108 100.3 248.645 101.784 248.645 103.454C248.645 105.557 249.449 107.443 251.057 109.113C252.727 110.783 255.479 112.608 259.313 114.587C263.21 116.504 268.498 119.009 275.178 122.102C281.796 125.07 287.424 128.286 292.062 131.75C296.701 135.152 300.227 139.265 302.639 144.089C305.113 148.851 306.35 154.758 306.35 161.809ZM410.534 203L403.854 177.58H359.787L352.922 203H312.658L356.911 66.8086H405.803L450.612 203H410.534ZM396.247 147.521L390.402 125.256C389.784 122.844 388.887 119.411 387.712 114.958C386.537 110.443 385.362 105.804 384.187 101.042C383.073 96.2178 382.207 92.2594 381.589 89.167C381.032 92.2594 380.228 96.0941 379.177 100.671C378.187 105.186 377.136 109.67 376.022 114.123C374.971 118.576 374.043 122.287 373.239 125.256L367.395 147.521H396.247ZM580.495 132.307C580.495 148.078 577.557 161.19 571.682 171.643C565.806 182.095 557.518 189.95 546.818 195.207C536.18 200.402 523.656 203 509.245 203H465.363V67.3652H512.307C526.903 67.3652 539.273 69.8701 549.416 74.8799C559.559 79.8896 567.259 87.2188 572.517 96.8672C577.836 106.516 580.495 118.329 580.495 132.307ZM542.458 133.605C542.458 125.38 541.345 118.576 539.118 113.195C536.953 107.753 533.675 103.701 529.284 101.042C524.893 98.3206 519.357 96.96 512.678 96.96H502.009V172.941H510.173C521.306 172.941 529.47 169.725 534.665 163.293C539.86 156.799 542.458 146.903 542.458 133.605ZM604.895 203V67.3652H641.726V203H604.895Z" fill="url(#paint5_linear_219_2)"/>
<defs>
<linearGradient id="paint0_linear_219_2" x1="54" y1="37" x2="161.5" y2="65.5" gradientUnits="userSpaceOnUse">
<stop stop-color="#3D73FF"/>
<stop offset="1" stop-color="#66E3FF"/>
</linearGradient>
<linearGradient id="paint1_linear_219_2" x1="43.5" y1="46.7692" x2="148.271" y2="79.5959" gradientUnits="userSpaceOnUse">
<stop stop-color="#3D73FF"/>
<stop offset="1" stop-color="#66E3FF"/>
</linearGradient>
<linearGradient id="paint2_linear_219_2" x1="126.5" y1="71" x2="165" y2="76" gradientUnits="userSpaceOnUse">
<stop stop-color="#25323E"/>
<stop offset="0.0001" stop-color="#041552"/>
<stop offset="1" stop-color="#4DD4FF"/>
</linearGradient>
<linearGradient id="paint3_linear_219_2" x1="43" y1="37.5" x2="150.5" y2="66" gradientUnits="userSpaceOnUse">
<stop stop-color="#3D73FF"/>
<stop offset="1" stop-color="#66E3FF"/>
</linearGradient>
<linearGradient id="paint4_linear_219_2" x1="43" y1="37.5" x2="150.5" y2="66" gradientUnits="userSpaceOnUse">
<stop stop-color="#3D73FF"/>
<stop offset="1" stop-color="#66E3FF"/>
</linearGradient>
<linearGradient id="paint5_linear_219_2" x1="462.5" y1="335.5" x2="424.822" y2="16.9566" gradientUnits="userSpaceOnUse">
<stop stop-color="#0D68BC"/>
<stop offset="0.0001" stop-color="#3D73FF"/>
<stop offset="1" stop-color="#68D5FF"/>
</linearGradient>
</defs>
</svg>
